<?xml version="1.0" encoding="utf-8"?><svg viewBox="0 0 500 500" xmlns="http://www.w3.org/2000/svg" xmlns:xlink="http://www.w3.org/1999/xlink"><style>:root>svg{display:none}:root>svg:target{display:block}</style><svg viewBox="0 0 485.213 485.212" id="clock" xmlns="http://www.w3.org/2000/svg"><path d="M242.607 0C108.629 0 .001 108.628.001 242.606c0 133.976 108.628 242.606 242.606 242.606s242.604-108.631 242.604-242.606C485.212 108.628 376.585 0 242.607 0zm15.164 454.116v-29.557h-30.327v29.557c-104.925-7.458-188.883-91.419-196.346-196.344h29.554v-30.327H31.098c7.463-104.928 91.421-188.886 196.346-196.349V60.65h30.327V31.097c104.926 7.462 188.882 91.421 196.344 196.349h-29.552v30.327h29.552c-7.463 104.924-91.419 188.885-196.344 196.343zm96.455-275.953c2.072 3.615.83 8.266-2.782 10.368l-80.092 46.227c.691 2.577 1.582 5.066 1.582 7.848 0 16.762-13.581 30.324-30.326 30.324-16.75 0-30.327-13.562-30.327-30.324l-82.299-47.503c-7.257-4.203-9.743-13.474-5.554-20.729 4.174-7.285 13.459-9.771 20.715-5.565l82.775 47.798c4.411-2.487 9.239-4.324 14.69-4.324 8.471 0 16.092 3.494 21.604 9.122l79.648-46.024c3.556-2.104 8.204-.86 10.366 2.782z"/></svg><svg viewBox="0 0 511.626 511.627" id="comment" xmlns="http://www.w3.org/2000/svg"><path d="M477.364 127.481c-22.839-28.072-53.864-50.248-93.072-66.522-39.208-16.274-82.036-24.41-128.479-24.41-46.442 0-89.269 8.136-128.478 24.41s-70.233 38.446-93.074 66.522C11.419 155.555 0 186.15 0 219.269c0 28.549 8.61 55.299 25.837 80.232 17.227 24.934 40.778 45.874 70.664 62.813-2.096 7.611-4.57 14.842-7.426 21.7-2.855 6.851-5.424 12.467-7.708 16.847-2.286 4.374-5.376 9.23-9.281 14.555-3.899 5.332-6.849 9.093-8.848 11.283a4550.42 4550.42 0 00-9.851 10.848c-4.565 5.041-7.517 8.33-8.848 9.853-.193.097-.953.948-2.285 2.574-1.331 1.615-1.999 2.419-1.999 2.419l-1.713 2.57c-.953 1.42-1.381 2.327-1.287 2.703.096.384-.094 1.335-.57 2.854-.477 1.526-.428 2.669.142 3.429v.287c.762 3.234 2.283 5.853 4.567 7.851 2.284 1.992 4.858 2.991 7.71 2.991h1.429c12.375-1.526 23.223-3.613 32.548-6.279 49.87-12.751 93.649-35.782 131.334-69.094 14.274 1.523 28.074 2.283 41.396 2.283 46.442 0 89.271-8.135 128.479-24.414 39.208-16.276 70.233-38.444 93.072-66.517 22.843-28.072 34.263-58.67 34.263-91.789.001-33.114-11.418-63.713-34.261-91.787zm-32.12 164.594c-19.896 22.456-46.733 40.303-80.517 53.529-33.784 13.223-70.093 19.842-108.921 19.842-11.609 0-23.98-.76-37.113-2.286l-16.274-1.708-12.277 10.852c-23.408 20.558-49.582 36.829-78.513 48.821 8.754-15.414 15.416-31.785 19.986-49.102l7.708-27.412-24.838-14.27c-24.744-14.093-43.918-30.793-57.53-50.114-13.61-19.315-20.412-39.638-20.412-60.954 0-26.077 9.945-50.343 29.834-72.803 19.895-22.458 46.729-40.303 80.515-53.531 33.786-13.229 70.089-19.849 108.92-19.849 38.828 0 75.13 6.617 108.914 19.845 33.783 13.229 60.62 31.073 80.517 53.531 19.89 22.46 29.834 46.727 29.834 72.802s-9.944 50.347-29.833 72.807z"/></svg><svg data-name="Livello 1" viewBox="0 0 128 128" id="email" xmlns="http://www.w3.org/2000/svg"><path d="M116.73 31.83a3 3 0 00-4.2-.61L64.14 67.34a1 1 0 01-1.2 0L15.5 31.06a3 3 0 10-3.64 4.77l37.3 28.53-36.89 27.8A3 3 0 1015.88 97l38.23-28.86 5.18 4a7 7 0 008.43.06l5.44-4.06L111.84 97a3 3 0 103.59-4.81L78.17 64.35 116.12 36a3 3 0 00.61-4.17z"/><path d="M113 19H15A15 15 0 000 34v60a15 15 0 0015 15h98a15 15 0 0015-15V34a15 15 0 00-15-15zm9 75a9 9 0 01-9 9H15a9 9 0 01-9-9V34a9 9 0 019-9h98a9 9 0 019 9z"/></svg><svg viewBox="0 0 512 512" id="facebook" xmlns="http://www.w3.org/2000/svg"><path d="M308.3 508.5c-2.5.1-4.1.3-5.7.3-34.2 0-68.3-.1-102.5.1-4.8 0-6.1-1.3-6.1-6.1.1-79.6.1-159.3.1-238.9V257H139v-85h5.4c15 0 30-.1 45 .1 3.8 0 4.8-1.1 4.8-4.8-.2-22.3-.2-44.7 0-67 .1-15.6 2.6-30.8 9.8-44.9 10.3-19.9 26.6-32.8 47.2-40.8 16.8-6.6 34.5-9 52.3-9.3 29-.4 58-.2 87-.3 2.7 0 4.9-.1 4.9 3.7-.1 27.5-.1 55-.1 82.5 0 .3-.1.6-.5 1.9h-5.5c-18 0-36-.1-54 0-10.4 0-18.8 4.2-24.1 13.3-1.6 2.7-2.6 6.2-2.6 9.4-.3 17 0 34-.2 51 0 4 1.2 5.1 5.1 5.1 25-.2 50-.1 75-.1h7.3c-3.5 28.6-6.9 56.6-10.4 84.9h-77.1v251.8z"/></svg><svg viewBox="0 0 24 24" id="google-plus" xmlns="http://www.w3.org/2000/svg"><path d="M21.823 9h-2.187v2.177h-2.177v2.187h2.177v2.177h2.187v-2.177H24v-2.187h-2.177zM7.5 19.5c4.328 0 7.203-3.038 7.203-7.326 0-.491-.051-.87-.122-1.248h-7.08v2.578h4.257c-.174 1.095-1.289 3.233-4.257 3.233-2.557 0-4.645-2.118-4.645-4.737s2.087-4.738 4.645-4.738c1.463 0 2.435.624 2.988 1.156l2.036-1.954C11.214 5.237 9.526 4.5 7.5 4.5 3.356 4.5 0 7.856 0 12s3.356 7.5 7.5 7.5z"/></svg><svg viewBox="0 0 511 511.9" id="instagram" xmlns="http://www.w3.org/2000/svg"><path d="M510.95 150.5c-1.2-27.2-5.598-45.898-11.9-62.102-6.5-17.199-16.5-32.597-29.6-45.398-12.802-13-28.302-23.102-45.302-29.5-16.296-6.3-34.898-10.7-62.097-11.898C334.648.3 325.949 0 256.449 0s-78.199.3-105.5 1.5c-27.199 1.2-45.898 5.602-62.097 11.898-17.204 6.5-32.602 16.5-45.403 29.602-13 12.8-23.097 28.3-29.5 45.3-6.3 16.302-10.699 34.9-11.898 62.098C.75 177.801.449 186.5.449 256s.301 78.2 1.5 105.5c1.2 27.2 5.602 45.898 11.903 62.102 6.5 17.199 16.597 32.597 29.597 45.398 12.801 13 28.301 23.102 45.301 29.5 16.3 6.3 34.898 10.7 62.102 11.898 27.296 1.204 36 1.5 105.5 1.5s78.199-.296 105.5-1.5c27.199-1.199 45.898-5.597 62.097-11.898a130.934 130.934 0 0074.903-74.898c6.296-16.301 10.699-34.903 11.898-62.102 1.2-27.3 1.5-36 1.5-105.5s-.102-78.2-1.3-105.5zm-46.098 209c-1.102 25-5.301 38.5-8.801 47.5-8.602 22.3-26.301 40-48.602 48.602-9 3.5-22.597 7.699-47.5 8.796-27 1.204-35.097 1.5-103.398 1.5s-76.5-.296-103.403-1.5c-25-1.097-38.5-5.296-47.5-8.796C94.551 451.5 84.45 445 76.25 436.5c-8.5-8.3-15-18.3-19.102-29.398-3.5-9-7.699-22.602-8.796-47.5-1.204-27-1.5-35.102-1.5-103.403s.296-76.5 1.5-103.398c1.097-25 5.296-38.5 8.796-47.5C61.25 94.199 67.75 84.1 76.352 75.898c8.296-8.5 18.296-15 29.398-19.097 9-3.5 22.602-7.7 47.5-8.801 27-1.2 35.102-1.5 103.398-1.5 68.403 0 76.5.3 103.403 1.5 25 1.102 38.5 5.3 47.5 8.8 11.097 4.098 21.199 10.598 29.398 19.098 8.5 8.301 15 18.301 19.102 29.403 3.5 9 7.699 22.597 8.8 47.5 1.2 27 1.5 35.097 1.5 103.398s-.3 76.301-1.5 103.301zm0 0"/><path d="M256.45 124.5c-72.598 0-131.5 58.898-131.5 131.5s58.902 131.5 131.5 131.5c72.6 0 131.5-58.898 131.5-131.5s-58.9-131.5-131.5-131.5zm0 216.8c-47.098 0-85.302-38.198-85.302-85.3s38.204-85.3 85.301-85.3c47.102 0 85.301 38.198 85.301 85.3s-38.2 85.3-85.3 85.3zm167.402-222c0 16.954-13.747 30.7-30.704 30.7-16.953 0-30.699-13.746-30.699-30.7 0-16.956 13.746-30.698 30.7-30.698 16.956 0 30.703 13.742 30.703 30.699zm0 0"/></svg><svg id="like" version="1.1" viewBox="0 0 64 64" xml:space="preserve" xmlns="http://www.w3.org/2000/svg"><style>.gst0{fill:#134563}</style><g id="gIcon-Like" transform="translate(78 528)"><path class="gst0" d="M-22-495.6c0-3.2-2.5-4.9-6-4.9h-10.1c.7-2.7 1.1-5.3 1.1-7.5 0-8.7-2.4-10.5-4.5-10.5-1.4 0-2.4.1-3.8 1-.4.2-.6.6-.7 1l-1.5 8.1c-1.6 4.3-5.7 8-9 10.5v21.4c1.1 0 2.5.6 3.8 1.3 1.6.8 3.3 1.6 5.2 1.6h14.3c3 0 5.2-2.4 5.2-4.5 0-.4 0-.8-.1-1.1 1.9-.7 3.1-2.3 3.1-4.1 0-.9-.2-1.7-.5-2.3 1.1-.8 2.3-2.1 2.3-3.7 0-.8-.4-1.8-1-2.5 1.3-1 2.2-2.4 2.2-3.8zm-3.1 0c0 1.9-2 2.1-2.3 3-.3 1 1.2 1.4 1.2 3.2 0 1.9-2.3 1.9-2.6 2.8-.4 1.1.7 1.5.7 3.3v.3c-.3 1.5-2.6 1.6-3 2.2-.4.7.1 1.1.1 2.7 0 .9-1 1.5-2.2 1.5h-14.3c-1.1 0-2.5-.6-3.8-1.3-1.2-.6-2.4-1.2-3.7-1.5v-15.9c3.7-2.8 8.5-7.1 10.4-12.3 0-.1 0-.2.1-.2l1.4-7.5c.5-.2.9-.2 1.7-.2.3 0 1.5 1.8 1.5 7.5 0 2.2-.4 4.7-1.2 7.5h-.4c-.8 0-1.5.7-1.5 1.5s.7 1.5 1.5 1.5H-28c1.5 0 2.9.7 2.9 1.9z" id="gFill-4_2_"/><path class="gst0" d="M-58-473.5h-9c-1.7 0-3-1.3-3-3v-21c0-1.7 1.3-3 3-3h9c1.7 0 3 1.3 3 3v21c0 1.7-1.3 3-3 3zm-9-24v21h9v-21h-9zm-3-21" id="gFill-6_2_"/></g></svg><svg viewBox="0 0 573.75 573.75" id="print" xmlns="http://www.w3.org/2000/svg"><path d="M143.438 439.875h286.875V459H143.438zm0 57.375h286.875v19.125H143.438z"/><circle cx="449.438" cy="267.75" r="19.125"/><path d="M506.812 172.125h-38.25V38.25c0-21.038-17.213-38.25-38.25-38.25H143.438c-21.038 0-38.25 17.212-38.25 38.25v133.875h-38.25c-32.513 0-57.375 24.862-57.375 57.375v172.125C9.562 434.138 34.425 459 66.938 459h38.25v76.5c0 21.037 17.212 38.25 38.25 38.25h286.875c21.037 0 38.25-17.213 38.25-38.25V459h38.25c32.513 0 57.375-24.862 57.375-57.375V229.5c0-32.513-24.863-57.375-57.376-57.375zM124.312 38.25c0-9.562 7.65-19.125 19.125-19.125h286.875c9.562 0 19.125 7.65 19.125 19.125v133.875H124.312V38.25zM449.438 535.5c0 9.562-7.65 19.125-19.125 19.125H143.438c-9.562 0-19.125-7.65-19.125-19.125V401.625h325.125V535.5zm95.624-133.875c0 21.037-17.213 38.25-38.25 38.25h-38.25V382.5H105.188v57.375h-38.25c-21.038 0-38.25-17.213-38.25-38.25V229.5c0-21.038 17.212-38.25 38.25-38.25h439.875c21.037 0 38.25 17.212 38.25 38.25v172.125z"/></svg><svg viewBox="0 0 1009.991 1010" id="search" xmlns="http://www.w3.org/2000/svg"><path d="M90.58 1010c-24.19 0-46.93-9.396-64.039-26.505C9.416 966.352 0 943.612 0 919.402c0-24.174 9.415-46.948 26.541-64.057l183.133-183.132c17.108-17.108 39.847-26.541 64.04-26.541 24.191 0 46.948 9.432 64.074 26.505 35.31 35.364 35.292 92.857 0 128.15L154.655 983.494C137.53 1000.604 114.772 1010 90.58 1010zm183.133-327.602c-14.382 0-27.904 5.596-38.072 15.782L52.51 881.313c-10.187 10.186-15.781 23.708-15.781 38.09 0 14.382 5.594 27.94 15.78 38.124 20.337 20.337 55.808 20.337 76.18-.034L311.822 774.36c20.982-20.981 20.982-55.162-.018-76.18-10.168-10.185-23.69-15.78-38.09-15.78z"/><path d="M343.24 736.197a18.51 18.51 0 01-4.806-.644 18.383 18.383 0 01-12.966-13.056c-2.492-9.575-7.102-17.754-13.665-24.353-6.528-6.492-14.723-11.082-24.335-13.63a18.412 18.412 0 01-13.037-12.984c-1.704-6.347.107-13.126 4.752-17.752l58.749-58.75c3.658-3.694 8.697-5.667 13.898-5.379a18.499 18.499 0 0113.306 6.743c14.472 17.681 30.774 34 48.473 48.455a18.483 18.483 0 016.725 13.306 18.411 18.411 0 01-5.362 13.916l-58.749 58.75a18.387 18.387 0 01-12.984 5.378zm-19.332-75.21c5.021 3.264 9.666 6.994 13.862 11.19a87.927 87.927 0 0111.244 13.88l26.021-26.002a381.38 381.38 0 01-25.106-25.107l-26.02 26.038z"/><path d="M630.491 759.009c-209.26 0-379.5-170.257-379.5-379.509 0-209.261 170.24-379.5 379.5-379.5s379.5 170.239 379.5 379.5c0 209.252-170.239 379.509-379.5 379.509zm0-722.282c-188.995 0-342.772 153.776-342.772 342.773 0 188.987 153.777 342.781 342.772 342.781 188.997 0 342.775-153.794 342.775-342.781 0-188.997-153.778-342.773-342.775-342.773z"/><path d="M431.865 379.823c-10.15 0-18.363-8.214-18.363-18.364 0-129.62 105.429-235.066 235.03-235.066 10.15 0 18.364 8.212 18.364 18.363 0 10.15-8.214 18.364-18.364 18.364-109.338 0-198.304 88.966-198.304 198.339 0 10.15-8.213 18.364-18.363 18.364z"/></svg><svg viewBox="0 0 525.152 525.152" id="share" xmlns="http://www.w3.org/2000/svg"><path d="M420.735 371.217c-20.021 0-37.942 7.855-51.596 20.24L181.112 282.094c1.357-6.061 2.407-12.166 2.407-18.468s-1.072-12.385-2.407-18.468l185.904-108.335c14.179 13.129 32.931 21.334 53.719 21.334 43.828 0 79.145-35.251 79.145-79.079C499.88 35.338 464.541 0 420.735 0c-43.741 0-79.079 35.338-79.079 79.057 0 6.389 1.072 12.385 2.407 18.468L158.158 205.947c-14.201-13.194-32.931-21.378-53.741-21.378-43.828 0-79.145 35.317-79.145 79.057s35.317 79.079 79.145 79.079c20.787 0 39.54-8.206 53.719-21.334l187.698 109.604c-1.291 5.58-2.101 11.4-2.101 17.199 0 42.45 34.594 76.979 76.979 76.979 42.428 0 77.044-34.507 77.044-76.979s-34.593-76.957-77.021-76.957z"/></svg><svg viewBox="0 0 512 512" id="twitter" xmlns="http://www.w3.org/2000/svg"><path d="M4 440.5c55.6 5 105.7-9 151.3-43.2-47.7-4.2-79.6-28-97.4-72.6 15.6 1.9 30.2 2.4 45.7-1.8-51.4-16-78.8-49.6-82.5-103.8 15.4 7.2 29.9 12.4 47 12.6-30.5-22.9-46.1-52.6-45.5-90 .3-17.2 4.9-33.4 14-48.7C93.1 159.1 164 195.7 251.3 201.8c-.5-3.8-.8-6.8-1.2-9.9-7.2-55.4 28.8-105.8 83.8-116.3 34.5-6.6 65 2.5 90.8 26.3 4 3.6 7.4 4.4 12.4 3.1 20.1-5.1 39.2-12.5 57.7-22.5-7.1 23.4-21.7 41-41.5 55.8 4.5-.8 9.1-1.4 13.6-2.3 4.7-1 9.4-2.1 14.1-3.4 4.5-1.2 8.9-2.6 13.3-4.1 4.5-1.5 9-3.2 14.3-4.1-2.6 3.6-5.1 7.4-7.9 10.9-11.6 14.7-25 27.6-39.7 39.1-1.5 1.2-2.8 3.8-2.7 5.6.8 35.5-4.2 70.1-15.7 103.7-22.6 66.2-62 119.8-121.1 158.1-29.2 18.9-61.1 31.3-95.2 38.5-33.8 7.1-67.8 8.4-101.9 4.4-34.2-4-66.7-14.1-97.3-29.9-8.1-4.1-15.9-8.7-23.8-13.1.3-.4.5-.8.7-1.2z"/></svg><svg viewBox="0 0 511.999 511.999" id="view" xmlns="http://www.w3.org/2000/svg"><path d="M508.745 246.041c-4.574-6.257-113.557-153.206-252.748-153.206S7.818 239.784 3.249 246.035a16.896 16.896 0 000 19.923c4.569 6.257 113.557 153.206 252.748 153.206s248.174-146.95 252.748-153.201a16.875 16.875 0 000-19.922zM255.997 385.406c-102.529 0-191.33-97.533-217.617-129.418 26.253-31.913 114.868-129.395 217.617-129.395 102.524 0 191.319 97.516 217.617 129.418-26.253 31.912-114.868 129.395-217.617 129.395z"/><path d="M255.997 154.725c-55.842 0-101.275 45.433-101.275 101.275s45.433 101.275 101.275 101.275S357.272 311.842 357.272 256s-45.433-101.275-101.275-101.275zm0 168.791c-37.23 0-67.516-30.287-67.516-67.516s30.287-67.516 67.516-67.516 67.516 30.287 67.516 67.516-30.286 67.516-67.516 67.516z"/></svg></svg>