<?xml version="1.0" encoding="utf-8"?><svg viewBox="0 0 500 500" xmlns="http://www.w3.org/2000/svg" xmlns:xlink="http://www.w3.org/1999/xlink"><style>:root>svg{display:none}:root>svg:target{display:block}</style><svg viewBox="0 0 357 357" id="close-button" xmlns="http://www.w3.org/2000/svg"><path d="M357 35.7L321.3 0 178.5 142.8 35.7 0 0 35.7l142.8 142.8L0 321.3 35.7 357l142.8-142.8L321.3 357l35.7-35.7-142.8-142.8z"/></svg><svg viewBox="0 0 512 512" id="login" xmlns="http://www.w3.org/2000/svg"><path d="M260.52 329.539a24 24 0 0033.941 33.941l90.51-90.51a24 24 0 000-33.941l-90.51-90.509a24 24 0 00-33.941 0 24 24 0 000 33.941L310.059 232H48a24 24 0 00-24 24 24 24 0 0024 24h262.059z"/><path d="M448 24H224a40 40 0 00-40 40v32a24 24 0 0048 0V72h208v368H232v-24a24 24 0 00-48 0v32a40 40 0 0040 40h224a40 40 0 0040-40V64a40 40 0 00-40-40z"/></svg><svg viewBox="0 -53 384 384" id="menu" xmlns="http://www.w3.org/2000/svg"><path d="M368 154.668H16c-8.832 0-16-7.168-16-16s7.168-16 16-16h352c8.832 0 16 7.168 16 16s-7.168 16-16 16zM368 32H16C7.168 32 0 24.832 0 16S7.168 0 16 0h352c8.832 0 16 7.168 16 16s-7.168 16-16 16zm0 245.332H16c-8.832 0-16-7.168-16-16s7.168-16 16-16h352c8.832 0 16 7.168 16 16s-7.168 16-16 16zm0 0"/></svg><svg viewBox="0 0 450.391 450.391" id="shopping-cart" xmlns="http://www.w3.org/2000/svg"><path d="M143.673 350.322c-25.969 0-47.02 21.052-47.02 47.02 0 25.969 21.052 47.02 47.02 47.02 25.969 0 47.02-21.052 47.02-47.02.001-25.968-21.051-47.02-47.02-47.02zm0 73.143c-14.427 0-26.122-11.695-26.122-26.122s11.695-26.122 26.122-26.122 26.122 11.695 26.122 26.122c.001 14.427-11.695 26.122-26.122 26.122zm198.531-73.143c-25.969 0-47.02 21.052-47.02 47.02 0 25.969 21.052 47.02 47.02 47.02s47.02-21.052 47.02-47.02c0-25.968-21.051-47.02-47.02-47.02zm0 73.143c-14.427 0-26.122-11.695-26.122-26.122s11.695-26.122 26.122-26.122 26.122 11.695 26.122 26.122c.001 14.427-11.695 26.122-26.122 26.122zM448.261 76.037a13.064 13.064 0 00-8.359-4.18L99.788 67.155 90.384 38.42C83.759 19.211 65.771 6.243 45.453 6.028H10.449C4.678 6.028 0 10.706 0 16.477s4.678 10.449 10.449 10.449h35.004a27.17 27.17 0 0125.078 18.286l66.351 200.098-5.224 12.016a50.154 50.154 0 004.702 45.453 48.588 48.588 0 0039.184 21.943h203.233c5.771 0 10.449-4.678 10.449-10.449s-4.678-10.449-10.449-10.449H175.543a26.646 26.646 0 01-21.943-12.539 28.733 28.733 0 01-2.612-25.078l4.18-9.404 219.951-22.988c24.16-2.661 44.034-20.233 49.633-43.886L449.83 84.917a8.882 8.882 0 00-1.569-8.88zm-43.885 109.191c-3.392 15.226-16.319 26.457-31.869 27.69l-217.339 22.465-48.588-147.33 320.261 4.702-22.465 92.473z"/></svg><svg viewBox="0 0 18 14" id="skype" xmlns="http://www.w3.org/2000/svg"><path d="M17.364 8.486c.128-.455.196-.928.196-1.413C17.56 3.438 13.77.49 9.095.49c-.494 0-.977.033-1.448.096A5.948 5.948 0 005.035 0C2.324 0 .126 1.71.126 3.818c0 .705.247 1.365.675 1.931-.112.428-.171.87-.171 1.324 0 3.637 3.79 6.584 8.465 6.584.53 0 1.047-.038 1.55-.11a6.027 6.027 0 002.32.453c2.712 0 4.91-1.71 4.91-3.818 0-.61-.185-1.185-.511-1.696zm-3.928 1.734c-.391.43-.97.772-1.72 1.015-.742.24-1.632.362-2.645.362-1.216 0-2.235-.167-3.03-.495-.57-.239-1.038-.563-1.394-.962-.36-.403-.542-.804-.542-1.19 0-.24.118-.45.353-.621.232-.17.529-.256.883-.256.291 0 .542.068.746.202.195.128.362.319.496.564.15.267.314.493.487.67.166.171.405.315.71.427.306.113.72.17 1.229.17.7 0 1.274-.116 1.705-.345.422-.224.627-.492.627-.821a.732.732 0 00-.327-.625c-.23-.167-.534-.298-.904-.387a21.774 21.774 0 00-1.553-.3c-.875-.145-1.619-.318-2.211-.514a.184.184 0 01-.007-.002c-.607-.2-1.096-.48-1.454-.828a1.775 1.775 0 01-.548-1.32c0-.496.193-.945.575-1.332.378-.384.931-.682 1.643-.887.702-.202 1.538-.304 2.484-.304.756 0 1.42.068 1.975.202.558.135 1.028.318 1.398.542.372.226.65.468.823.72.176.254.265.506.265.75 0 .236-.117.45-.347.636-.232.188-.525.283-.87.283-.313 0-.559-.06-.729-.177-.158-.109-.323-.279-.505-.523a2.391 2.391 0 00-.76-.731c-.284-.168-.76-.254-1.413-.254-.607 0-1.1.095-1.467.282-.353.18-.524.386-.524.63 0 .15.055.276.168.384.12.114.29.215.505.298.222.087.452.156.681.206.236.05.63.126 1.172.223a25.952 25.952 0 011.871.38 7.01 7.01 0 011.448.515c.406.205.727.47.954.784.229.316.345.706.345 1.16 0 .542-.2 1.036-.593 1.469z"/></svg><svg viewBox="0 0 16 14" id="telegram" xmlns="http://www.w3.org/2000/svg"><path d="M.283 6.714L3.969 8.09l1.427 4.59a.435.435 0 00.69.207l2.055-1.675a.613.613 0 01.747-.021l3.707 2.69a.434.434 0 00.68-.262L15.991.56a.435.435 0 00-.582-.494L.279 5.9a.435.435 0 00.004.813zm4.883.644l7.206-4.438c.13-.08.262.096.151.199L6.577 8.646a1.233 1.233 0 00-.382.738l-.203 1.501c-.027.2-.308.22-.363.026l-.78-2.737a.725.725 0 01.317-.816z"/></svg><svg viewBox="0 0 322 322" id="viber" xmlns="http://www.w3.org/2000/svg"><path d="M275.445 135.123c.387-45.398-38.279-87.016-86.192-92.771-.953-.113-1.991-.285-3.09-.467-2.372-.393-4.825-.797-7.3-.797-9.82 0-12.445 6.898-13.136 11.012-.672 4-.031 7.359 1.902 9.988 3.252 4.422 8.974 5.207 13.57 5.836 1.347.186 2.618.359 3.682.598 43.048 9.619 57.543 24.742 64.627 67.424.173 1.043.251 2.328.334 3.691.309 5.102.953 15.717 12.365 15.717h.001c.95 0 1.971-.082 3.034-.244 10.627-1.615 10.294-11.318 10.134-15.98-.045-1.313-.088-2.555.023-3.381.03-.208.045-.417.046-.626z"/><path d="M176.077 25.688c1.275.092 2.482.18 3.487.334 70.689 10.871 103.198 44.363 112.207 115.605.153 1.211.177 2.688.202 4.252.09 5.566.275 17.145 12.71 17.385l.386.004c3.9 0 7.002-1.176 9.221-3.498 3.871-4.049 3.601-10.064 3.383-14.898-.053-1.186-.104-2.303-.091-3.281.899-72.862-62.171-138.933-134.968-141.39-.302-.01-.59.006-.881.047a6.09 6.09 0 01-.862.047c-.726 0-1.619-.063-2.566-.127C177.16.09 175.862 0 174.546 0c-11.593 0-13.797 8.24-14.079 13.152-.65 11.352 10.332 12.151 15.61 12.536zM288.36 233.703a224.924 224.924 0 01-4.512-3.508c-7.718-6.211-15.929-11.936-23.87-17.473a1800.92 1800.92 0 01-4.938-3.449c-10.172-7.145-19.317-10.617-27.957-10.617-11.637 0-21.783 6.43-30.157 19.109-3.71 5.621-8.211 8.354-13.758 8.354-3.28 0-7.007-.936-11.076-2.783-32.833-14.889-56.278-37.717-69.685-67.85-6.481-14.564-4.38-24.084 7.026-31.832 6.477-4.396 18.533-12.58 17.679-28.252-.967-17.797-40.235-71.346-56.78-77.428-7.005-2.576-14.365-2.6-21.915-.06-19.02 6.394-32.669 17.623-39.475 32.471-6.577 14.347-6.28 31.193.859 48.717 20.638 50.666 49.654 94.84 86.245 131.293 35.816 35.684 79.837 64.914 130.839 86.875 4.597 1.978 9.419 3.057 12.94 3.844 1.2.27 2.236.5 2.991.707.415.113.843.174 1.272.178l.403.002h.002c23.988 0 52.791-21.92 61.637-46.91 7.75-21.882-6.4-32.698-17.77-41.388zM186.687 83.564c-4.107.104-12.654.316-15.653 9.021-1.403 4.068-1.235 7.6.5 10.498 2.546 4.252 7.424 5.555 11.861 6.27 16.091 2.582 24.355 11.48 26.008 28 .768 7.703 5.955 13.082 12.615 13.082h.001c.492 0 .995-.029 1.496-.09 8.01-.953 11.893-6.838 11.542-17.49.128-11.117-5.69-23.738-15.585-33.791-9.929-10.084-21.898-15.763-32.785-15.5z"/></svg></svg>